<svg xmlns="http://www.w3.org/2000/svg" viewBox="0 0 1024 1024" width="1024" height="1024">
  <defs>
    <radialGradient id="bg" cx="50%" cy="45%" r="70%">
      <stop offset="0%" stop-color="#18294a"/>
      <stop offset="58%" stop-color="#07101e"/>
      <stop offset="100%" stop-color="#02040a"/>
    </radialGradient>
    <linearGradient id="neon" x1="20%" y1="15%" x2="82%" y2="88%">
      <stop offset="0%" stop-color="#7cf8ff"/>
      <stop offset="45%" stop-color="#00d7ff"/>
      <stop offset="100%" stop-color="#8b5cff"/>
    </linearGradient>
    <linearGradient id="web" x1="5%" y1="8%" x2="95%" y2="95%">
      <stop offset="0%" stop-color="#b8fff7" stop-opacity="0.92"/>
      <stop offset="100%" stop-color="#6c8cff" stop-opacity="0.55"/>
    </linearGradient>
    <filter id="glow" x="-50%" y="-50%" width="200%" height="200%">
      <feGaussianBlur stdDeviation="18" result="blur"/>
      <feMerge><feMergeNode in="blur"/><feMergeNode in="SourceGraphic"/></feMerge>
    </filter>
  </defs>
  <rect width="1024" height="1024" rx="220" fill="url(#bg)"/>
  <g fill="none" stroke="url(#web)" stroke-width="18" stroke-linecap="round" opacity="0.78">
    <path d="M156 198 C320 100 555 96 784 214"/>
    <path d="M110 520 C245 322 498 210 868 232"/>
    <path d="M164 826 C292 640 548 480 914 392"/>
    <path d="M250 138 C330 342 348 596 268 898"/>
    <path d="M514 102 C486 342 502 612 588 918"/>
    <path d="M806 190 C656 390 618 660 752 900"/>
    <path d="M142 360 C330 308 562 318 876 318" opacity="0.55"/>
    <path d="M128 666 C350 594 604 542 920 498" opacity="0.55"/>
  </g>
  <circle cx="512" cy="512" r="326" fill="none" stroke="#14e8ff" stroke-width="8" opacity="0.22"/>
  <circle cx="512" cy="512" r="390" fill="none" stroke="#8b5cff" stroke-width="5" opacity="0.18"/>
  <text x="512" y="704" text-anchor="middle" font-family="Arial Black, Montserrat, sans-serif" font-size="560" font-weight="900" fill="url(#neon)" stroke="#e8ffff" stroke-width="10" paint-order="stroke fill" filter="url(#glow)">B</text>
  <path d="M314 242 L710 242" stroke="#ffffff" stroke-opacity="0.55" stroke-width="22" stroke-linecap="round"/>
  <path d="M318 782 L708 782" stroke="#66f7ff" stroke-opacity="0.45" stroke-width="18" stroke-linecap="round"/>
</svg>
